<svg width="460" height="64" viewBox="0 0 460 64" fill="none" xmlns="http://www.w3.org/2000/svg">
  <!-- ContextSubstrate — Horizontal Lockup (Light) -->
  <g transform="translate(0, 2)">
    <!-- Bottom layer -->
    <path d="M30 55 L6 42 L6 34 L30 47 L54 34 L54 42 Z" fill="#1a1a1a" opacity="0.12"/>
    <path d="M30 47 L6 34 L30 21 L54 34 Z" fill="#2d3139"/>
    <!-- Middle layer -->
    <path d="M30 45 L6 32 L6 24 L30 37 L54 24 L54 32 Z" fill="#1a1a1a" opacity="0.12"/>
    <path d="M30 37 L6 24 L30 11 L54 24 Z" fill="#4a7cff"/>
    <!-- Top layer -->
    <path d="M30 35 L6 22 L6 14 L30 27 L54 14 L54 22 Z" fill="#1a1a1a" opacity="0.12"/>
    <path d="M30 27 L6 14 L30 1 L54 14 Z" fill="#58a6ff"/>
    <!-- Nodes -->
    <circle cx="30" cy="14" r="3" fill="#fff"/>
    <circle cx="30" cy="24" r="2.5" fill="#fff" opacity="0.85"/>
    <circle cx="30" cy="34" r="2" fill="#fff" opacity="0.45"/>
    <line x1="30" y1="17" x2="30" y2="21.5" stroke="#fff" stroke-width="1" opacity="0.45"/>
    <line x1="30" y1="26.5" x2="30" y2="32" stroke="#fff" stroke-width="1" opacity="0.3"/>
  </g>
  <!-- Wordmark -->
  <text x="76" y="30" font-family="'IBM Plex Mono', 'JetBrains Mono', 'SF Mono', 'Menlo', monospace" font-size="22" font-weight="600" fill="#1a1a1a">Context</text>
  <text x="195" y="30" font-family="'IBM Plex Mono', 'JetBrains Mono', 'SF Mono', 'Menlo', monospace" font-size="22" font-weight="600" fill="#58a6ff">Substrate</text>
  <text x="76" y="50" font-family="'IBM Plex Mono', 'JetBrains Mono', 'SF Mono', 'Menlo', monospace" font-size="11" font-weight="500" fill="#8b949e" letter-spacing="2">REPRODUCIBLE AGENT INFRASTRUCTURE</text>
</svg>
