<svg width="64" height="64" viewBox="0 0 64 64" fill="none" xmlns="http://www.w3.org/2000/svg">
  <!-- ContextSubstrate Logo — Light variant -->
  <!-- Bottom layer -->
  <path d="M32 58 L8 44 L8 36 L32 50 L56 36 L56 44 Z" fill="#1a1a1a" opacity="0.12"/>
  <path d="M32 50 L8 36 L32 22 L56 36 Z" fill="#2d3139"/>
  <!-- Middle layer -->
  <path d="M32 48 L8 34 L8 26 L32 40 L56 26 L56 34 Z" fill="#1a1a1a" opacity="0.12"/>
  <path d="M32 40 L8 26 L32 12 L56 26 Z" fill="#4a7cff"/>
  <!-- Top layer -->
  <path d="M32 38 L8 24 L8 16 L32 30 L56 16 L56 24 Z" fill="#1a1a1a" opacity="0.12"/>
  <path d="M32 30 L8 16 L32 2 L56 16 Z" fill="#58a6ff"/>
  <!-- Hash nodes -->
  <circle cx="32" cy="16" r="3.5" fill="#fff"/>
  <circle cx="32" cy="26" r="3" fill="#fff" opacity="0.85"/>
  <circle cx="32" cy="36" r="2.5" fill="#fff" opacity="0.6"/>
  <!-- Traceability lines -->
  <line x1="32" y1="19.5" x2="32" y2="23" stroke="#fff" stroke-width="1.2" opacity="0.45"/>
  <line x1="32" y1="29" x2="32" y2="33.5" stroke="#fff" stroke-width="1.2" opacity="0.3"/>
</svg>
