<svg width="64" height="64" viewBox="0 0 64 64" fill="none" xmlns="http://www.w3.org/2000/svg">
  <!-- ContextSubstrate Logo — Isometric stacked layers with hash nodes -->
  <!-- Bottom layer (substrate) -->
  <path d="M32 58 L8 44 L8 36 L32 50 L56 36 L56 44 Z" fill="#000" opacity="0.3"/>
  <path d="M32 50 L8 36 L32 22 L56 36 Z" fill="#21262d"/>
  <!-- Middle layer -->
  <path d="M32 48 L8 34 L8 26 L32 40 L56 26 L56 34 Z" fill="#000" opacity="0.3"/>
  <path d="M32 40 L8 26 L32 12 L56 26 Z" fill="#1f4287"/>
  <!-- Top layer (active context) -->
  <path d="M32 38 L8 24 L8 16 L32 30 L56 16 L56 24 Z" fill="#000" opacity="0.3"/>
  <path d="M32 30 L8 16 L32 2 L56 16 Z" fill="#58a6ff"/>
  <!-- Hash nodes (content-addressing) -->
  <circle cx="32" cy="16" r="3.5" fill="#e6edf3"/>
  <circle cx="32" cy="26" r="3" fill="#e6edf3" opacity="0.75"/>
  <circle cx="32" cy="36" r="2.5" fill="#e6edf3" opacity="0.45"/>
  <!-- Traceability lines -->
  <line x1="32" y1="19.5" x2="32" y2="23" stroke="#e6edf3" stroke-width="1.2" opacity="0.35"/>
  <line x1="32" y1="29" x2="32" y2="33.5" stroke="#e6edf3" stroke-width="1.2" opacity="0.2"/>
</svg>
